<svg width="25" height="22" viewBox="0 0 25 22" fill="none" xmlns="http://www.w3.org/2000/svg">
<g clip-path="url(#clip0_105_294)">
<path d="M24.246 4.90946H23.9675C23.8105 4.57257 23.41 4.33193 22.94 4.33193H22.372V1.42663C22.372 0.638421 21.722 0 20.9195 0H4.08C3.2785 0 2.6285 0.638421 2.6285 1.42663V4.33193H2.061C1.591 4.33193 1.1905 4.57257 1.033 4.90946H0.755C0.338 4.90946 0 5.24144 0 5.65101V8.30783C0 8.7174 0.338 9.04839 0.755 9.04839H1.51C1.927 9.04839 2.265 8.7174 2.265 8.30783V5.65101C2.265 5.24144 1.927 4.90946 1.51 4.90946H1.436C1.5725 4.76164 1.802 4.66637 2.061 4.66637H2.6285V15.298C2.6285 15.492 2.699 15.6497 2.5015 15.6497C2.304 15.6497 2.1435 15.8068 2.1435 16.0008V18.6886C2.1435 19.0765 2.2325 19.3918 2.6285 19.3918H4.5345V20.7025C4.5345 21.419 5.1255 22 5.855 22H6.5505C7.28 22 7.871 21.419 7.871 20.7025V19.3918H17.1285V20.7025C17.1285 21.419 17.72 22 18.4495 22H19.1445C19.874 22 20.4655 21.419 20.4655 20.7025V19.3918H22.372C22.7665 19.3918 22.8565 19.0765 22.8565 18.6886V16.0008C22.8565 15.8068 22.696 15.6497 22.499 15.6497C22.3015 15.6497 22.372 15.492 22.372 15.298V4.66637H22.94C23.1985 4.66637 23.4285 4.76311 23.5645 4.90946H23.491C23.074 4.90946 22.7355 5.24144 22.7355 5.65101V8.30783C22.7355 8.7174 23.074 9.04839 23.491 9.04839H24.246C24.6625 9.04839 25 8.7174 25 8.30783V5.65101C25 5.24144 24.6625 4.90946 24.246 4.90946ZM7.628 1.47426H17.3715V2.05817H7.628V1.47426ZM5.574 17.2369C4.7135 17.2369 4.0165 16.5523 4.0165 15.7061C4.0165 14.8615 4.7135 14.1764 5.574 14.1764C6.435 14.1764 7.1325 14.8615 7.1325 15.7061C7.1325 16.5523 6.435 17.2369 5.574 17.2369ZM16.712 16.4423H8.287V15.4238H16.712V16.4423ZM4.2195 12.4684V3.78338H20.781V12.4684H4.2195ZM19.4255 17.2369C18.565 17.2369 17.868 16.5523 17.868 15.7061C17.868 14.8615 18.565 14.1764 19.4255 14.1764C20.2855 14.1764 20.984 14.8615 20.984 15.7061C20.984 16.5523 20.2855 17.2369 19.4255 17.2369Z" fill="#204198"/>
</g>
<defs>
<clipPath id="clip0_105_294">
<rect width="25" height="22" fill="white"/>
</clipPath>
</defs>
</svg>
