<svg width="24" height="24" viewBox="0 0 24 24" fill="none" xmlns="http://www.w3.org/2000/svg">
<path fill-rule="evenodd" clip-rule="evenodd" d="M11.52 2.32415C11.127 2.42915 10.8 2.66915 6.576 5.95715C1.701 9.75015 2.026 9.46215 2.023 9.99715C2.022 10.3102 2.105 10.5072 2.333 10.7282C2.557 10.9462 2.78 11.0002 3.447 11.0002H4L4.002 15.1302C4.005 19.7352 3.994 19.5402 4.281 20.0172C4.448 20.2942 4.787 20.6182 5.071 20.7722C5.505 21.0072 5.261 20.9992 12 20.9992C18.736 20.9992 18.492 21.0072 18.931 20.7722C19.199 20.6292 19.629 20.1992 19.772 19.9312C20.001 19.5032 19.999 19.5462 19.999 15.0902L20 11.0002H20.55C20.852 11.0002 21.17 10.9802 21.256 10.9562C21.4059 10.9141 21.5439 10.8377 21.659 10.7329C21.7742 10.6281 21.8633 10.4979 21.9192 10.3526C21.9751 10.2073 21.9964 10.051 21.9812 9.89606C21.9661 9.74112 21.915 9.59186 21.832 9.46015C21.726 9.29415 13.278 2.69615 12.928 2.50715C12.7939 2.43665 12.6532 2.37938 12.508 2.33615C12.275 2.27415 11.733 2.26815 11.52 2.32415ZM15.204 6.75615L18.359 9.21015L18.239 9.36115C17.987 9.67915 18 9.40815 18 14.4252V19.0002H13V16.4472C13 13.5382 13.007 13.6142 12.697 13.3032C12.5105 13.1188 12.262 13.0108 12 13.0002C11.763 13.0002 11.486 13.1202 11.303 13.3032C10.993 13.6142 11 13.5382 11 16.4472V19.0002H6V14.4462C6 9.46615 6.01 9.67515 5.765 9.36615L5.641 9.21015L8.811 6.74515C10.554 5.38915 11.996 4.28515 12.014 4.29215C13.0824 5.1069 14.1458 5.92825 15.204 6.75615Z" fill="#BFBFCF"/>
</svg>
