<svg width="20" height="26" viewBox="0 0 20 26" fill="none" xmlns="http://www.w3.org/2000/svg">
<g clip-path="url(#clip0_25_110)">
<path d="M10.0001 24.895C10.0577 24.9311 10.0505 24.9167 10.0001 24.8589C9.94961 24.9167 9.9424 24.9311 10.0001 24.895Z" stroke="#283C82" stroke-width="2" stroke-linecap="round" stroke-linejoin="round"/>
<path d="M10.0001 1.0835C5.07417 1.0835 1.08154 5.16405 1.08154 10.1979C1.08154 11.8879 1.3518 12.8052 1.79503 14.246C3.11749 18.5216 10.0001 24.9204 10.0001 24.9204C10.0001 24.9204 16.8755 18.5288 18.1979 14.2677C18.6484 12.8232 18.9186 11.8952 18.9186 10.2016C18.9186 5.16766 14.926 1.08711 10.0001 1.08711V1.0835ZM10.0001 14.1954C7.53893 14.1954 5.53901 12.1949 5.53901 9.72488C5.53901 7.25488 7.53532 5.25433 10.0001 5.25433C12.4648 5.25433 14.4612 7.25488 14.4612 9.72488C14.4612 12.1949 12.4648 14.1954 10.0001 14.1954Z" stroke="#283C82" stroke-width="2" stroke-linecap="round" stroke-linejoin="round"/>
</g>
<defs>
<clipPath id="clip0_25_110">
<rect width="20" height="26" fill="white"/>
</clipPath>
</defs>
</svg>
