<svg width="36" height="36" viewBox="0 0 36 36" fill="none" xmlns="http://www.w3.org/2000/svg">
<mask id="mask0_2_587" style="mask-type:alpha" maskUnits="userSpaceOnUse" x="0" y="0" width="36" height="36">
<rect width="36" height="36" fill="#D9D9D9"/>
</mask>
<g mask="url(#mask0_2_587)">
<path d="M16.5 31.5V28.5H28.5V17.85C28.5 14.925 27.4813 12.4437 25.4438 10.4062C23.4062 8.36875 20.925 7.35 18 7.35C15.075 7.35 12.5938 8.36875 10.5562 10.4062C8.51875 12.4437 7.5 14.925 7.5 17.85V27H6C5.175 27 4.46875 26.7063 3.88125 26.1188C3.29375 25.5312 3 24.825 3 24V21C3 20.475 3.13125 19.9812 3.39375 19.5187C3.65625 19.0562 4.025 18.6875 4.5 18.4125L4.6125 16.425C4.8125 14.725 5.30625 13.15 6.09375 11.7C6.88125 10.25 7.86875 8.9875 9.05625 7.9125C10.2438 6.8375 11.6063 6 13.1438 5.4C14.6813 4.8 16.3 4.5 18 4.5C19.7 4.5 21.3125 4.8 22.8375 5.4C24.3625 6 25.725 6.83125 26.925 7.89375C28.125 8.95625 29.1125 10.2125 29.8875 11.6625C30.6625 13.1125 31.1625 14.6875 31.3875 16.3875L31.5 18.3375C31.975 18.5625 32.3438 18.9 32.6063 19.35C32.8688 19.8 33 20.275 33 20.775V24.225C33 24.725 32.8688 25.2 32.6063 25.65C32.3438 26.1 31.975 26.4375 31.5 26.6625V28.5C31.5 29.325 31.2063 30.0312 30.6188 30.6188C30.0312 31.2063 29.325 31.5 28.5 31.5H16.5ZM12.4312 20.5688C12.1438 20.2813 12 19.925 12 19.5C12 19.075 12.1438 18.7188 12.4312 18.4313C12.7188 18.1438 13.075 18 13.5 18C13.925 18 14.2812 18.1438 14.5688 18.4313C14.8562 18.7188 15 19.075 15 19.5C15 19.925 14.8562 20.2813 14.5688 20.5688C14.2812 20.8563 13.925 21 13.5 21C13.075 21 12.7188 20.8563 12.4312 20.5688ZM21.4313 20.5688C21.1438 20.2813 21 19.925 21 19.5C21 19.075 21.1438 18.7188 21.4313 18.4313C21.7188 18.1438 22.075 18 22.5 18C22.925 18 23.2812 18.1438 23.5688 18.4313C23.8563 18.7188 24 19.075 24 19.5C24 19.925 23.8563 20.2813 23.5688 20.5688C23.2812 20.8563 22.925 21 22.5 21C22.075 21 21.7188 20.8563 21.4313 20.5688ZM9.0375 18.675C8.8625 16.025 9.6625 13.75 11.4375 11.85C13.2125 9.95 15.425 9 18.075 9C20.3 9 22.2563 9.70625 23.9438 11.1187C25.6313 12.5312 26.65 14.3375 27 16.5375C24.725 16.5125 22.6313 15.9 20.7188 14.7C18.8062 13.5 17.3375 11.875 16.3125 9.825C15.9125 11.825 15.0688 13.6062 13.7812 15.1688C12.4937 16.7313 10.9125 17.9 9.0375 18.675Z" fill="white"/>
</g>
</svg>
