<svg width="20" height="20" viewBox="0 0 20 20" fill="none" xmlns="http://www.w3.org/2000/svg">
<g clip-path="url(#clip0_25_116)">
<path d="M10 0.824219C15.0591 0.824219 19.1756 4.94073 19.1756 9.99982" stroke="#283C82" stroke-width="2" stroke-linecap="round" stroke-linejoin="round"/>
<path d="M10 3.76758C13.435 3.76758 16.2325 6.5623 16.2325 10.0001" stroke="#283C82" stroke-width="2" stroke-linecap="round" stroke-linejoin="round"/>
<path d="M10 7.04883C11.6268 7.04883 12.9514 8.37337 12.9514 10.0002" stroke="#283C82" stroke-width="2" stroke-linecap="round" stroke-linejoin="round"/>
<path d="M16.1086 16.3368C16.0784 16.5759 15.9657 16.8149 15.8146 16.9661L14.7016 18.0818C10.9094 21.2557 6.09485 16.5264 6.04539 16.4797L3.52821 13.9598C3.48149 13.9103 -1.25058 9.09853 1.90963 5.31727L3.04181 4.18509C3.19021 4.0367 3.43203 3.92403 3.66836 3.89106C3.71508 3.88556 3.75904 3.88281 3.80301 3.88281C3.97888 3.88281 4.12178 3.92953 4.20422 4.01197L6.55652 6.727C6.83956 7.01005 6.83956 7.46621 6.55652 7.74926L5.69914 8.60939C5.48754 8.83747 5.33915 9.05181 5.24297 9.26891C5.0561 9.78278 4.75657 11.1266 6.04813 12.5171L7.49359 13.9653C8.87583 15.2486 10.2196 14.949 10.75 14.7567C10.9478 14.6687 11.1649 14.5176 11.3985 14.3005L12.2504 13.4486C12.5224 13.1766 12.9841 13.1601 13.2864 13.4624L15.9767 15.7927C16.0894 15.9108 16.1361 16.1087 16.1058 16.3368H16.1086Z" stroke="#283C82" stroke-width="2" stroke-linecap="round" stroke-linejoin="round"/>
</g>
<defs>
<clipPath id="clip0_25_116">
<rect width="20" height="20" fill="white"/>
</clipPath>
</defs>
</svg>
